<svg aria-hidden="true" style="position: absolute; width: 0; height: 0; overflow: hidden;" version="1.1" xmlns="http://www.w3.org/2000/svg" xmlns:xlink="http://www.w3.org/1999/xlink">
<defs>
<symbol id="icon-logo" viewBox="0 0 24 24">
<title>logo</title>
<path fill="#2671f2" style="fill: var(--color1, #2671f2)" d="M24 24h-22.652l17.238-10.358c0.351-0.214 0.582-0.594 0.582-1.029 0-0.663-0.537-1.2-1.2-1.2-0.228 0-0.442 0.064-0.623 0.174l0.005-0.003-17.35 10.425v-22.010h22.652l-17.238 10.358c-0.355 0.213-0.589 0.596-0.589 1.033 0 0.663 0.537 1.2 1.2 1.2 0.231 0 0.447-0.065 0.631-0.179l-0.005 0.003 17.35-10.425v22.010zM16.113 8.328c-0.228 0-0.441 0.064-0.622 0.175l0.005-0.003-8.229 4.944c-0.358 0.212-0.595 0.596-0.595 1.036 0 0.663 0.537 1.2 1.2 1.2 0.234 0 0.451-0.067 0.636-0.182l-0.005 0.003 8.229-4.944c0.351-0.214 0.582-0.594 0.582-1.029 0-0.663-0.537-1.2-1.2-1.2-0 0-0.001 0-0.001 0h0z"></path>
</symbol>
<symbol id="icon-mail" viewBox="0 0 21 24">
<title>mail</title>
<path d="M16.714 1.714c2.129 0 3.857 1.728 3.857 3.857v12.857c0 2.129-1.728 3.857-3.857 3.857h-12.857c-2.129 0-3.857-1.728-3.857-3.857v-12.857c0-2.129 1.728-3.857 3.857-3.857h12.857zM17.143 15.857v-5.839c-0.254 0.281-0.536 0.536-0.857 0.737-1.259 0.83-2.558 1.607-3.804 2.464-0.629 0.442-1.406 0.924-2.196 0.924v0 0 0 0c-0.79 0-1.567-0.482-2.196-0.924-1.246-0.857-2.558-1.621-3.804-2.478-0.308-0.201-0.549-0.496-0.857-0.723v5.839c0 0.71 0.576 1.286 1.286 1.286h11.143c0.71 0 1.286-0.576 1.286-1.286zM17.143 8.183c0-0.723-0.536-1.326-1.286-1.326h-11.143c-0.71 0-1.286 0.576-1.286 1.286 0 0.723 0.75 1.513 1.313 1.888 1.179 0.79 2.397 1.527 3.576 2.304 0.509 0.335 1.353 0.951 1.969 0.951s1.46-0.616 1.969-0.951c1.192-0.777 2.384-1.54 3.576-2.33 0.522-0.348 1.313-1.152 1.313-1.821z"></path>
</symbol>
<symbol id="icon-github" viewBox="0 0 21 24">
<title>github</title>
<path d="M6.951 16.071v0c0.027-0.040 0.013-0.121-0.040-0.174-0.067-0.054-0.147-0.067-0.188-0.027-0.027 0.040-0.013 0.121 0.040 0.174 0.067 0.054 0.147 0.067 0.188 0.027zM6.576 15.522c-0.040-0.054-0.107-0.080-0.161-0.054-0.040 0.027-0.040 0.107 0 0.161 0.054 0.067 0.121 0.094 0.161 0.067v0c0.040-0.027 0.040-0.107 0-0.174zM6.027 14.987v0c0.013-0.027-0.013-0.080-0.067-0.107-0.040-0.013-0.094-0.013-0.107 0.027-0.027 0.040 0 0.080 0.054 0.107 0.054 0.013 0.107 0.013 0.121-0.027zM6.308 15.295v0c0.027-0.027 0.027-0.094-0.027-0.134-0.040-0.054-0.107-0.067-0.134-0.040-0.040 0.040-0.027 0.094 0.013 0.147 0.040 0.040 0.107 0.067 0.147 0.027zM7.46 16.299v0c0.013-0.054-0.040-0.121-0.121-0.147s-0.147 0-0.174 0.054c-0.013 0.054 0.040 0.121 0.121 0.147s0.147 0 0.174-0.054zM8.022 16.339v0c0-0.054-0.067-0.107-0.161-0.107-0.080 0-0.134 0.054-0.134 0.107s0.067 0.107 0.147 0.107 0.147-0.054 0.147-0.107zM8.545 16.246v0c-0.013-0.054-0.094-0.080-0.174-0.067s-0.134 0.067-0.121 0.121 0.080 0.094 0.161 0.080 0.134-0.080 0.134-0.134zM17.143 12c0-3.79-3.067-6.857-6.857-6.857s-6.857 3.067-6.857 6.857c0 3.027 1.969 5.598 4.688 6.509 0.348 0.067 0.469-0.147 0.469-0.335 0-0.161 0-0.696-0.013-1.272 0 0-1.902 0.415-2.304-0.817 0 0-0.308-0.79-0.763-0.991 0 0-0.616-0.429 0.054-0.429 0 0 0.67 0.054 1.045 0.71 0.603 1.058 1.607 0.75 1.996 0.576 0.067-0.442 0.241-0.75 0.442-0.924-1.527-0.174-3.134-0.763-3.134-3.388 0-0.75 0.268-1.353 0.71-1.835-0.067-0.174-0.308-0.871 0.067-1.821 0.576-0.174 1.888 0.71 1.888 0.71 0.549-0.161 1.125-0.228 1.714-0.228s1.165 0.067 1.714 0.228c0 0 1.313-0.884 1.888-0.71 0.375 0.951 0.134 1.647 0.067 1.821 0.442 0.482 0.71 1.085 0.71 1.835 0 2.638-1.607 3.214-3.134 3.388 0.241 0.214 0.469 0.629 0.469 1.272 0 0.911-0.013 1.647-0.013 1.875 0 0.188 0.121 0.402 0.469 0.335 2.719-0.911 4.688-3.482 4.688-6.509zM20.571 5.571v12.857c0 2.129-1.728 3.857-3.857 3.857h-12.857c-2.129 0-3.857-1.728-3.857-3.857v-12.857c0-2.129 1.728-3.857 3.857-3.857h12.857c2.129 0 3.857 1.728 3.857 3.857z"></path>
</symbol>
<symbol id="icon-twitter" viewBox="0 0 21 24">
<title>twitter</title>
<path d="M17.143 8.17c-0.509 0.228-1.045 0.375-1.621 0.455 0.589-0.348 1.031-0.911 1.246-1.567-0.549 0.321-1.152 0.563-1.795 0.683-0.509-0.549-1.246-0.884-2.049-0.884-1.554 0-2.813 1.259-2.813 2.813 0 0.214 0.013 0.442 0.067 0.643-2.344-0.121-4.42-1.232-5.813-2.946-0.241 0.415-0.388 0.911-0.388 1.42 0 0.978 0.455 1.835 1.219 2.344-0.469-0.013-0.911-0.147-1.339-0.348v0.027c0 1.366 1.031 2.504 2.317 2.759-0.241 0.067-0.429 0.107-0.683 0.107-0.174 0-0.348-0.027-0.522-0.054 0.362 1.112 1.393 1.929 2.625 1.955-0.964 0.75-2.17 1.205-3.496 1.205-0.228 0-0.455-0.013-0.67-0.040 1.246 0.79 2.719 1.259 4.313 1.259 5.17 0 8.009-4.286 8.009-8.009 0-0.121 0-0.241-0.013-0.362 0.549-0.388 1.031-0.884 1.406-1.46zM20.571 5.571v12.857c0 2.129-1.728 3.857-3.857 3.857h-12.857c-2.129 0-3.857-1.728-3.857-3.857v-12.857c0-2.129 1.728-3.857 3.857-3.857h12.857c2.129 0 3.857 1.728 3.857 3.857z"></path>
</symbol>
<symbol id="icon-linkedin" viewBox="0 0 21 24">
<title>linkedin</title>
<path d="M3.174 18.938h3.094v-9.295h-3.094v9.295zM6.469 6.777c-0.013-0.911-0.67-1.607-1.728-1.607s-1.754 0.696-1.754 1.607c0 0.884 0.67 1.607 1.714 1.607h0.013c1.085 0 1.754-0.723 1.754-1.607zM14.304 18.938h3.094v-5.33c0-2.853-1.527-4.179-3.563-4.179-1.661 0-2.397 0.924-2.799 1.567h0.027v-1.353h-3.094s0.040 0.871 0 9.295v0h3.094v-5.196c0-0.268 0.013-0.549 0.094-0.75 0.228-0.549 0.737-1.125 1.594-1.125 1.112 0 1.554 0.844 1.554 2.103v4.969zM20.571 5.571v12.857c0 2.129-1.728 3.857-3.857 3.857h-12.857c-2.129 0-3.857-1.728-3.857-3.857v-12.857c0-2.129 1.728-3.857 3.857-3.857h12.857c2.129 0 3.857 1.728 3.857 3.857z"></path>
</symbol>
<symbol id="icon-npm" viewBox="0 0 24 24">
<title>npm</title>
<path d="M0 0v24h24v-24h-24zM19.5 19.5h-3v-12h-4.5v12h-7.5v-15h15v15z"></path>
</symbol>
</defs>
</svg>
