<svg xmlns="http://www.w3.org/2000/svg" xmlns:xlink="http://www.w3.org/1999/xlink" width="169" height="24"><svg width="24" height="24"><path fill="#2671f2" d="M24 24H1.348l17.238-10.358a1.2 1.2 0 1 0-1.241-2.055l.005-.003L0 22.009V-.001h22.652L5.414 10.357a1.2 1.2 0 1 0 1.242 2.054l-.005.003 17.35-10.425v22.01zM16.113 8.328c-.228 0-.441.064-.622.175l.005-.003-8.229 4.944a1.2 1.2 0 1 0 1.241 2.054l-.005.003 8.229-4.944a1.2 1.2 0 0 0-.618-2.229h-.001z"/></svg><svg width="21" height="24" x="29"><path fill="#2671f2" d="M16.714 1.714a3.858 3.858 0 0 1 3.857 3.857v12.857a3.858 3.858 0 0 1-3.857 3.857H3.857A3.858 3.858 0 0 1 0 18.428V5.571a3.858 3.858 0 0 1 3.857-3.857h12.857zm.429 14.143v-5.839a4.101 4.101 0 0 1-.857.737c-1.259.83-2.558 1.607-3.804 2.464-.629.442-1.406.924-2.196.924-.79 0-1.567-.482-2.196-.924-1.246-.857-2.558-1.621-3.804-2.478-.308-.201-.549-.496-.857-.723v5.839c0 .71.576 1.286 1.286 1.286h11.143c.71 0 1.286-.576 1.286-1.286zm0-7.674c0-.723-.536-1.326-1.286-1.326H4.714c-.71 0-1.286.576-1.286 1.286 0 .723.75 1.513 1.313 1.888 1.179.79 2.397 1.527 3.576 2.304.509.335 1.353.951 1.969.951s1.46-.616 1.969-.951c1.192-.777 2.384-1.54 3.576-2.33.522-.348 1.313-1.152 1.313-1.821z"/></svg><svg width="21" height="24" x="58"><path fill="#2671f2" d="M6.951 16.071c.027-.04.013-.121-.04-.174-.067-.054-.147-.067-.188-.027-.027.04-.013.121.04.174.067.054.147.067.188.027zm-.375-.549c-.04-.054-.107-.08-.161-.054-.04.027-.04.107 0 .161.054.067.121.094.161.067.04-.027.04-.107 0-.174zm-.549-.535c.013-.027-.013-.08-.067-.107-.04-.013-.094-.013-.107.027-.027.04 0 .08.054.107.054.013.107.013.121-.027zm.281.308c.027-.027.027-.094-.027-.134-.04-.054-.107-.067-.134-.04-.04.04-.027.094.013.147.04.04.107.067.147.027zm1.152 1.004c.013-.054-.04-.121-.121-.147s-.147 0-.174.054c-.013.054.04.121.121.147s.147 0 .174-.054zm.562.04c0-.054-.067-.107-.161-.107-.08 0-.134.054-.134.107s.067.107.147.107.147-.054.147-.107zm.523-.093c-.013-.054-.094-.08-.174-.067s-.134.067-.121.121.08.094.161.08.134-.08.134-.134zM17.143 12c0-3.79-3.067-6.857-6.857-6.857S3.429 8.21 3.429 12c0 3.027 1.969 5.598 4.688 6.509.348.067.469-.147.469-.335 0-.161 0-.696-.013-1.272 0 0-1.902.415-2.304-.817 0 0-.308-.79-.763-.991 0 0-.616-.429.054-.429 0 0 .67.054 1.045.71.603 1.058 1.607.75 1.996.576.067-.442.241-.75.442-.924-1.527-.174-3.134-.763-3.134-3.388 0-.75.268-1.353.71-1.835-.067-.174-.308-.871.067-1.821.576-.174 1.888.71 1.888.71.549-.161 1.125-.228 1.714-.228s1.165.067 1.714.228c0 0 1.313-.884 1.888-.71.375.951.134 1.647.067 1.821.442.482.71 1.085.71 1.835 0 2.638-1.607 3.214-3.134 3.388.241.214.469.629.469 1.272 0 .911-.013 1.647-.013 1.875 0 .188.121.402.469.335 2.719-.911 4.688-3.482 4.688-6.509zm3.428-6.429v12.857a3.858 3.858 0 0 1-3.857 3.857H3.857A3.858 3.858 0 0 1 0 18.428V5.571a3.858 3.858 0 0 1 3.857-3.857h12.857a3.858 3.858 0 0 1 3.857 3.857z"/></svg><svg width="21" height="24" x="87"><path fill="#2671f2" d="M17.143 8.17a5.913 5.913 0 0 1-1.621.455 2.849 2.849 0 0 0 1.246-1.567 5.597 5.597 0 0 1-1.795.683 2.79 2.79 0 0 0-2.049-.884 2.812 2.812 0 0 0-2.813 2.813c0 .214.013.442.067.643a7.994 7.994 0 0 1-5.813-2.946 2.856 2.856 0 0 0-.388 1.42c0 .978.455 1.835 1.219 2.344-.469-.013-.911-.147-1.339-.348v.027c0 1.366 1.031 2.504 2.317 2.759a2.349 2.349 0 0 1-.683.107c-.174 0-.348-.027-.522-.054a2.828 2.828 0 0 0 2.625 1.955 5.664 5.664 0 0 1-4.166 1.165 8.02 8.02 0 0 0 4.313 1.259c5.17 0 8.009-4.286 8.009-8.009 0-.121 0-.241-.013-.362a5.403 5.403 0 0 0 1.406-1.46zm3.428-2.599v12.857a3.858 3.858 0 0 1-3.857 3.857H3.857A3.858 3.858 0 0 1 0 18.428V5.571a3.858 3.858 0 0 1 3.857-3.857h12.857a3.858 3.858 0 0 1 3.857 3.857z"/></svg><svg width="21" height="24" x="116"><path fill="#2671f2" d="M3.174 18.938h3.094V9.643H3.174v9.295zM6.469 6.777c-.013-.911-.67-1.607-1.728-1.607s-1.754.696-1.754 1.607c0 .884.67 1.607 1.714 1.607h.013c1.085 0 1.754-.723 1.754-1.607zm7.835 12.161h3.094v-5.33c0-2.853-1.527-4.179-3.563-4.179-1.661 0-2.397.924-2.799 1.567h.027V9.643H7.969s.04.871 0 9.295h3.094v-5.196c0-.268.013-.549.094-.75.228-.549.737-1.125 1.594-1.125 1.112 0 1.554.844 1.554 2.103v4.969zm6.267-13.367v12.857a3.858 3.858 0 0 1-3.857 3.857H3.857A3.858 3.858 0 0 1 0 18.428V5.571a3.858 3.858 0 0 1 3.857-3.857h12.857a3.858 3.858 0 0 1 3.857 3.857z"/></svg><svg width="24" height="24" x="145"><path fill="#2671f2" d="M0 0v24h24V0H0zm19.5 19.5h-3v-12H12v12H4.5v-15h15v15z"/></svg></svg>
